<?xml version="1.0" ?><!DOCTYPE svg PUBLIC "-//W3C//DTD SVG 1.1//EN" "http://www.w3.org/Graphics/SVG/1.1/DTD/svg11.dtd"><svg viewBox="0 0 729.837 729.838" xmlns="http://www.w3.org/2000/svg" xmlns:xlink="http://www.w3.org/1999/xlink"><style>:root>svg{display:none}:root>svg:target{display:block}</style><svg viewBox="0 0 512 512" id="basket" xmlns="http://www.w3.org/2000/svg"><g data-name="1"><path d="M397.78 316H192.65A15 15 0 01178 304.33l-34.54-150.48a15 15 0 0114.62-18.36h274.27A15 15 0 01447 153.85l-34.6 150.48A15 15 0 01397.78 316zm-193.19-30h181.25l27.67-120.48h-236.6zM222 450a57.48 57.48 0 1157.48-57.48A57.54 57.54 0 01222 450zm0-84.95a27.48 27.48 0 1027.48 27.47A27.5 27.5 0 00222 365.05zM368.42 450a57.48 57.48 0 1157.48-57.48A57.54 57.54 0 01368.42 450zm0-84.95a27.48 27.48 0 1027.48 27.47 27.5 27.5 0 00-27.48-27.47z"/><path d="M158.08 165.49a15 15 0 01-14.23-10.26L118.14 78H70.7a15 15 0 110-30H129a15 15 0 0114.23 10.26l29.13 87.49a15 15 0 01-14.23 19.74z"/></g></svg><svg viewBox="0 0 220.168 220.168" id="cart" xmlns="http://www.w3.org/2000/svg"><path d="M31.622 100.402v-.624a7.5 7.5 0 017.5-7.5h37.725a7.5 7.5 0 017.5 7.5v.624h51.476v-.624a7.5 7.5 0 017.5-7.5h37.725a7.5 7.5 0 017.5 7.5v.624h31.622V79.259c0-14.337-11.664-26-26-26h-36.171V29.495a7.5 7.5 0 00-7.5-7.5H69.671a7.5 7.5 0 00-7.5 7.5V53.26H26c-14.336 0-26 11.663-26 26v21.143h31.622zm45.549-63.407h65.825V53.26H77.171V36.995zm142.997 78.407v56.771c0 14.337-11.664 26-26 26H26c-14.336 0-26-11.663-26-26v-56.771h31.622v3.896a7.5 7.5 0 007.5 7.5h37.725a7.5 7.5 0 007.5-7.5v-3.896h51.476v3.896a7.5 7.5 0 007.5 7.5h37.725a7.5 7.5 0 007.5-7.5v-3.896h31.62z"/></svg><svg viewBox="0 0 17 17" id="close" xmlns="http://www.w3.org/2000/svg"><g stroke-width="2" stroke="#000" fill="none" fill-rule="evenodd" stroke-linecap="round"><path d="M1 1l14.142 14.142M15 1L1 15"/></g></svg><svg viewBox="0 0 729.837 729.838" id="dustbin" xmlns="http://www.w3.org/2000/svg"><path d="M589.193 222.04c0-6.296 5.106-11.404 11.402-11.404S612 215.767 612 222.04v437.476c0 19.314-7.936 36.896-20.67 49.653-12.733 12.734-30.339 20.669-49.653 20.669H188.162c-19.315 0-36.943-7.935-49.654-20.669-12.734-12.734-20.669-30.313-20.669-49.653V222.04c0-6.296 5.108-11.404 11.403-11.404 6.296 0 11.404 5.131 11.404 11.404v437.476c0 13.02 5.37 24.922 13.97 33.521 8.6 8.601 20.503 13.993 33.522 13.993h353.517c13.019 0 24.896-5.394 33.498-13.993 8.624-8.624 13.992-20.503 13.992-33.498V222.04h.048z"/><path d="M279.866 630.056c0 6.296-5.108 11.403-11.404 11.403s-11.404-5.107-11.404-11.403v-405.07c0-6.296 5.108-11.404 11.404-11.404s11.404 5.108 11.404 11.404v405.07zM376.323 630.056c0 6.296-5.107 11.403-11.403 11.403s-11.404-5.107-11.404-11.403v-405.07c0-6.296 5.108-11.404 11.404-11.404s11.403 5.108 11.403 11.404v405.07zM472.803 630.056c0 6.296-5.106 11.403-11.402 11.403-6.297 0-11.404-5.107-11.404-11.403v-405.07c0-6.296 5.107-11.404 11.404-11.404 6.296 0 11.402 5.108 11.402 11.404v405.07zM273.214 70.323c0 6.296-5.108 11.404-11.404 11.404-6.295 0-11.403-5.108-11.403-11.404 0-19.363 7.911-36.943 20.646-49.677C283.787 7.911 301.368 0 320.73 0h88.379c19.339 0 36.92 7.935 49.652 20.669 12.734 12.734 20.67 30.362 20.67 49.654 0 6.296-5.107 11.404-11.403 11.404s-11.403-5.108-11.403-11.404c0-13.019-5.369-24.922-13.97-33.522-8.602-8.601-20.503-13.994-33.522-13.994h-88.378c-13.043 0-24.922 5.369-33.546 13.97-8.626 8.624-13.995 20.503-13.995 33.546zM99.782 103.108h530.273c11.189 0 21.405 4.585 28.818 11.998l.047.048c7.413 7.412 11.998 17.628 11.998 28.818v29.46c0 6.295-5.108 11.403-11.404 11.403H70.323c-6.296 0-11.404-5.108-11.404-11.403v-29.46c0-11.166 4.585-21.406 11.998-28.818l.048-.048c7.412-7.412 17.651-11.998 28.817-11.998zm530.274 22.808H99.782c-4.965 0-9.503 2.02-12.734 5.274l-.048.048a17.89 17.89 0 00-5.274 12.734v18.056h566.361v-18.056a17.94 17.94 0 00-5.273-12.734l-.049-.048a17.875 17.875 0 00-12.709-5.274z"/></svg><svg viewBox="0 0 512 512" id="fb" xmlns="http://www.w3.org/2000/svg"><path d="M308.3 508.5c-2.5.1-4.1.3-5.7.3-34.2 0-68.3-.1-102.5.1-4.8 0-6.1-1.3-6.1-6.1.1-79.6.1-159.3.1-238.9V257H139v-85h5.4c15 0 30-.1 45 .1 3.8 0 4.8-1.1 4.8-4.8-.2-22.3-.2-44.7 0-67 .1-15.6 2.6-30.8 9.8-44.9 10.3-19.9 26.6-32.8 47.2-40.8 16.8-6.6 34.5-9 52.3-9.3 29-.4 58-.2 87-.3 2.7 0 4.9-.1 4.9 3.7-.1 27.5-.1 55-.1 82.5 0 .3-.1.6-.5 1.9h-5.5c-18 0-36-.1-54 0-10.4 0-18.8 4.2-24.1 13.3-1.6 2.7-2.6 6.2-2.6 9.4-.3 17 0 34-.2 51 0 4 1.2 5.1 5.1 5.1 25-.2 50-.1 75-.1h7.3c-3.5 28.6-6.9 56.6-10.4 84.9h-77.1v251.8z"/></svg><svg viewBox="0 0 640 512" id="g" xmlns="http://www.w3.org/2000/svg"><path d="M386.061 228.496c1.834 9.692 3.143 19.384 3.143 31.956C389.204 370.205 315.599 448 204.8 448c-106.084 0-192-85.915-192-192s85.916-192 192-192c51.864 0 95.083 18.859 128.611 50.292l-52.126 50.03c-14.145-13.621-39.028-29.599-76.485-29.599-65.484 0-118.92 54.221-118.92 121.277 0 67.056 53.436 121.277 118.92 121.277 75.961 0 104.513-54.745 108.965-82.773H204.8v-66.009h181.261zm185.406 6.437V179.2h-56.001v55.733h-55.733v56.001h55.733v55.733h56.001v-55.733H627.2v-56.001h-55.733z"/></svg><svg viewBox="0 0 448 448" id="headphone" xmlns="http://www.w3.org/2000/svg"><path d="M414.875 340.719c.656 3.687 1.125 7.406 1.125 11.281 0 35.344-28.656 64-64 64 0 17.688-14.312 32-32 32s-32-14.312-32-32V288c0-17.688 14.312-32 32-32s32 14.312 32 32c17.625 0 33.594 7.125 45.156 18.688C409.188 281.625 416 253.594 416 224c0-105.875-86.125-192-192-192S32 118.125 32 224c0 29.594 6.813 57.625 18.844 82.656C62.422 295.125 78.375 288 96 288c0-17.688 14.313-32 32-32s32 14.312 32 32v128c0 17.688-14.313 32-32 32s-32-14.312-32-32c-35.344 0-64-28.656-64-64 0-3.875.484-7.625 1.141-11.281C12.266 306.719 0 266.844 0 224 0 100.281 100.281 0 224 0s224 100.281 224 224c0 42.844-12.25 82.719-33.125 116.719z"/></svg><svg viewBox="0 0 32 32" id="in" xmlns="http://www.w3.org/2000/svg"><path d="M32 31.292V19.46c0-6.34-3.384-9.29-7.896-9.29-3.641 0-5.273 2.003-6.182 3.409v-2.924h-6.86c.091 1.937 0 20.637 0 20.637h6.86V19.767c0-.615.044-1.232.226-1.672.495-1.233 1.624-2.509 3.518-2.509 2.483 0 3.475 1.892 3.475 4.666v11.041H32v-.001zM3.835 7.838c2.391 0 3.882-1.586 3.882-3.567C7.673 2.247 6.227.707 3.881.707S0 2.246 0 4.271c0 1.981 1.489 3.567 3.792 3.567h.043zm3.43 23.454V10.655H.406v20.637h6.859z"/></svg><svg viewBox="0 0 32 32" id="like" xmlns="http://www.w3.org/2000/svg"><path d="M29.845 17.099l-2.489 8.725A3.013 3.013 0 0124.473 28H11a1 1 0 01-1-1V13c0-.215.069-.425.198-.597l5.392-7.24A3.027 3.027 0 0121 7.026V12h5.002c1.265 0 2.427.579 3.188 1.589a3.972 3.972 0 01.655 3.51zM7 12H3a1 1 0 00-1 1v14a1 1 0 001 1h4a1 1 0 001-1V13a1 1 0 00-1-1zM5 25.5a1.5 1.5 0 11.001-3.001A1.5 1.5 0 015 25.5z"/></svg><svg viewBox="0 0 60 60" id="mail" xmlns="http://www.w3.org/2000/svg"><path d="M0 8.5V51.5h60V8.5H0zm36.625 22.064l-5.446 5.472c-.662.615-1.698.614-2.332.026l-5.473-5.498.048-.047L3.647 10.5h52.719L36.577 30.518l.048.046zm-16.101-.031L2 48.355V11.923l18.524 18.61zm1.41 1.417l5.523 5.549a3.704 3.704 0 002.533.993c.923 0 1.85-.339 2.581-1.02l5.496-5.522L56.304 49.5H3.686l18.248-17.55zm17.543-1.416L58 11.922v36.433L39.477 30.534z"/></svg><svg viewBox="0 0 268.476 268.476" id="message" xmlns="http://www.w3.org/2000/svg"><path d="M232.68 13.424H35.797C17.262 13.424 0 30.768 0 49.22v125.289c0 18.453 17.262 35.797 35.797 35.797h8.949v44.746l80.543-44.746h107.39c18.534 0 35.796-17.345 35.796-35.797V49.22c.001-18.452-17.261-35.796-35.795-35.796zM62.644 129.803c-9.885 0-17.898-8.044-17.898-17.969 0-9.923 8.013-17.968 17.898-17.968 9.884 0 17.898 8.045 17.898 17.968 0 9.925-8.013 17.969-17.898 17.969zm71.594 0c-9.885 0-17.899-8.044-17.899-17.969 0-9.923 8.014-17.968 17.899-17.968 9.885 0 17.898 8.045 17.898 17.968 0 9.925-8.014 17.969-17.898 17.969zm71.593 0c-9.885 0-17.899-8.044-17.899-17.969 0-9.923 8.014-17.968 17.899-17.968s17.898 8.045 17.898 17.968c.001 9.925-8.012 17.969-17.898 17.969z" fill-rule="evenodd" clip-rule="evenodd"/></svg><svg viewBox="0 0 512 512" id="pin" xmlns="http://www.w3.org/2000/svg"><path d="M236.3 335.8c-1.9 7.7-3.6 14.5-5.3 21.3-1.9 7.8-3.7 15.6-5.5 23.4-2.2 9.5-3.9 19.1-6.7 28.3-4 13.1-8 26.2-13.4 38.7-5 11.5-11.6 22.4-17.9 33.3-5.2 8.9-11.1 17.5-16.9 26.1-.9 1.3-3.4 2.6-4.5 2.2-1.4-.5-3-2.7-3.2-4.3-3.8-30.3-5.8-60.8-1.8-91.2 1.6-12.3 4.9-24.3 7.4-36.5 1.6-8 3.2-16.1 4.9-24.2 2.1-9.9 4.3-19.9 6.5-29.8 3.2-14.6 6.5-29.1 9.8-43.7 2.7-11.7 5.3-23.5 8.2-35.2 1.4-5.6-1.5-10.2-2.8-15.2-4.3-17.2-7-34.3-3.8-52.2 2.3-12.9 5.7-25.2 13-36.1 9.5-14.2 22.3-23.5 40.4-22.5 15.5.9 26.3 11 30.3 25.3 4.5 15.8 2.5 31.6-1.6 47.2-4.4 17-9.1 33.8-13.4 50.8-2.7 10.6-6.6 21.2-7.2 32-.9 16.1 5.4 30.2 19.5 39.3 11.2 7.2 23.1 8.6 36.3 5.4 17.5-4.3 29.6-15.2 39.8-29 12.1-16.3 18.9-34.8 24.2-54.3 6.5-24.2 9-48.6 8.5-73.5-.4-23-6.5-44.3-19.5-63.3-9.8-14.2-22.7-24.8-38.7-31.8-10.2-4.5-20.3-8.4-31.5-8.9-12.1-.5-24.3-2.6-36.2-1.4-35.9 3.9-65.6 19.7-88 48.5-8.9 11.5-16 24-20.7 37.5-7.2 20.8-10.4 42.4-8.3 64.5 1.5 15.5 6 30.4 16.2 42.4 7 8.2 5.7 16.2 3.3 25-1.3 4.6-2.5 9.2-3.5 13.9-1.7 8.4-6.4 12.7-16.1 8-19.4-9.4-31.7-24.9-40.3-44.1-12-26.9-14.1-55.3-11.3-83.9 3.3-32.4 15.8-61.7 35-88 13.9-19 31.2-34.4 51.4-46.5 15.8-9.5 32.6-16.2 50.4-20.8 23.1-6 46.5-7.8 70-5.9 17.6 1.4 34.6 5.6 51.1 12.4 28.5 11.8 51.8 29.9 70 54.6 10.8 14.7 19.1 30.8 24.5 48.4 3.2 10.4 5.9 20.8 6.2 31.7.4 12.3 1.8 24.6 1.1 36.7-.7 12.9-3.3 25.8-5.3 38.6-3.3 21.2-10.4 41.2-19.9 60.3-8.2 16.4-18.5 31.3-31.8 44.2-13.4 13-28.8 22.7-46.4 29.1-16.7 6.1-33.8 8.3-51.2 6.2-20.7-2.6-38.2-11.9-51.3-28.7-.9-1-2.3-2.4-4-4.3z"/></svg><svg viewBox="0 0 512 512" id="rss" xmlns="http://www.w3.org/2000/svg"><path d="M415.7 508.2c-2-110.5-39.2-206.7-116-285.9-76.9-79.3-171.6-119-282.4-121.2V5.4c8.4 0 16.8-.4 25.2.1 26.3 1.4 52.4 5 78.1 10.6 46.8 10.3 91.1 27.2 132.9 50.6 30.2 16.9 58.2 36.7 84.2 59.4 20.8 18.2 39.9 38.1 57.5 59.5 20.2 24.7 38 50.9 53.2 78.9 20.1 36.8 35.3 75.6 45.8 116.2 10.3 39.9 15.4 80.4 16.4 121.5.1 4.7-.8 6.4-5.8 6.3-27.8-.2-55.6-.1-83.5-.1-1.9.1-3.6-.1-5.6-.2z"/><path d="M17.3 272.5v-95.8c170.9-4 326.8 145.6 324.9 331.2h-94.5c-.9-63.7-22.3-119.3-66.8-165.2-44.6-46-99.3-69.1-163.6-70.2z"/><path d="M82.5 374.5c36.5-.1 65.8 29.5 65.8 66.7 0 36.8-29.2 66.7-65.3 66.8-36.6.1-66-29.5-66-66.5-.1-37.4 28.7-66.9 65.5-67z"/></svg><svg viewBox="0 0 30 30" id="search" xmlns="http://www.w3.org/2000/svg"><path d="M13 3C7.489 3 3 7.489 3 13s4.489 10 10 10a9.947 9.947 0 006.322-2.264l5.971 5.971a1 1 0 101.414-1.414l-5.97-5.97A9.947 9.947 0 0023 13c0-5.511-4.489-10-10-10zm0 2c4.43 0 8 3.57 8 8s-3.57 8-8 8-8-3.57-8-8 3.57-8 8-8z"/></svg><svg viewBox="0 0 493.349 493.349" id="truck" xmlns="http://www.w3.org/2000/svg"><path d="M487.932 51.1c-3.613-3.612-7.905-5.424-12.847-5.424h-292.36c-4.948 0-9.233 1.812-12.847 5.424-3.615 3.617-5.424 7.902-5.424 12.85v54.818h-45.683c-5.14 0-10.71 1.237-16.705 3.711-5.996 2.478-10.801 5.518-14.416 9.135l-56.532 56.531c-2.473 2.474-4.612 5.327-6.424 8.565-1.807 3.23-3.14 6.14-3.997 8.705-.855 2.572-1.477 6.089-1.854 10.566-.378 4.475-.62 7.758-.715 9.853-.091 2.092-.091 5.71 0 10.85.096 5.142.144 8.47.144 9.995v91.36c-4.947 0-9.229 1.807-12.847 5.428C1.809 347.076 0 351.363 0 356.312c0 2.851.378 5.376 1.14 7.562.763 2.19 2.046 3.949 3.858 5.284a92.406 92.406 0 004.709 3.285c1.335.855 3.571 1.424 6.711 1.711s5.28.479 6.423.575c1.143.089 3.568.089 7.279 0 3.715-.096 5.855-.144 6.427-.144h18.271c0 20.17 7.139 37.397 21.411 51.674 14.277 14.274 31.501 21.413 51.678 21.413 20.175 0 37.401-7.139 51.675-21.413 14.277-14.276 21.411-31.504 21.411-51.674H310.63c0 20.17 7.139 37.397 21.412 51.674 14.271 14.274 31.498 21.413 51.675 21.413 20.181 0 37.397-7.139 51.675-21.413 14.277-14.276 21.412-31.504 21.412-51.674.568 0 2.711.048 6.42.144 3.713.089 6.14.089 7.282 0 1.144-.096 3.289-.288 6.427-.575 3.139-.287 5.373-.855 6.708-1.711s2.901-1.95 4.709-3.285c1.81-1.335 3.097-3.094 3.856-5.284.77-2.187 1.143-4.712 1.143-7.562V63.953c.004-4.949-1.803-9.229-5.417-12.853zM153.597 400.28c-7.229 7.23-15.797 10.854-25.694 10.854-9.898 0-18.464-3.62-25.697-10.854-7.233-7.228-10.848-15.797-10.848-25.693 0-9.897 3.619-18.47 10.848-25.701 7.232-7.228 15.798-10.848 25.697-10.848 9.897 0 18.464 3.617 25.694 10.848 7.236 7.231 10.853 15.804 10.853 25.701 0 9.896-3.617 18.465-10.853 25.693zm10.853-171.877H54.814v-8.562c0-2.475.855-4.569 2.568-6.283l55.674-55.672c1.712-1.714 3.809-2.568 6.283-2.568h45.111v73.085zM409.41 400.28c-7.23 7.23-15.797 10.854-25.693 10.854-9.9 0-18.47-3.62-25.7-10.854-7.231-7.228-10.849-15.797-10.849-25.693 0-9.897 3.617-18.47 10.849-25.701 7.23-7.228 15.8-10.848 25.7-10.848 9.896 0 18.463 3.617 25.693 10.848 7.231 7.235 10.852 15.804 10.852 25.701 0 9.896-3.614 18.465-10.852 25.693z"/></svg><svg viewBox="0 0 512 512" id="twitter" xmlns="http://www.w3.org/2000/svg"><path d="M4 440.5c55.6 5 105.7-9 151.3-43.2-47.7-4.2-79.6-28-97.4-72.6 15.6 1.9 30.2 2.4 45.7-1.8-51.4-16-78.8-49.6-82.5-103.8 15.4 7.2 29.9 12.4 47 12.6-30.5-22.9-46.1-52.6-45.5-90 .3-17.2 4.9-33.4 14-48.7C93.1 159.1 164 195.7 251.3 201.8c-.5-3.8-.8-6.8-1.2-9.9-7.2-55.4 28.8-105.8 83.8-116.3 34.5-6.6 65 2.5 90.8 26.3 4 3.6 7.4 4.4 12.4 3.1 20.1-5.1 39.2-12.5 57.7-22.5-7.1 23.4-21.7 41-41.5 55.8 4.5-.8 9.1-1.4 13.6-2.3 4.7-1 9.4-2.1 14.1-3.4 4.5-1.2 8.9-2.6 13.3-4.1 4.5-1.5 9-3.2 14.3-4.1-2.6 3.6-5.1 7.4-7.9 10.9-11.6 14.7-25 27.6-39.7 39.1-1.5 1.2-2.8 3.8-2.7 5.6.8 35.5-4.2 70.1-15.7 103.7-22.6 66.2-62 119.8-121.1 158.1-29.2 18.9-61.1 31.3-95.2 38.5-33.8 7.1-67.8 8.4-101.9 4.4-34.2-4-66.7-14.1-97.3-29.9-8.1-4.1-15.9-8.7-23.8-13.1.3-.4.5-.8.7-1.2z"/></svg><svg viewBox="0 0 512 512" id="youtube" xmlns="http://www.w3.org/2000/svg"><path d="M260.4 449c-57.1-1.8-111.4-3.2-165.7-5.3-11.7-.5-23.6-2.3-35-5-21.4-5-36.2-17.9-43.8-39-6.1-17-8.3-34.5-9.9-52.3-3.5-41.8-3.5-83.6-1.8-125.4 1-23.6 1.6-47.4 7.9-70.3 3.8-13.7 8.4-27.1 19.5-37 11.7-10.5 25.4-16.8 41-17.5 42.8-2.1 85.5-4.7 128.3-5.1 57.6-.6 115.3.2 172.9 1.3 24.9.5 50 1.8 74.7 5 22.6 3 39.5 15.6 48.5 37.6 6.9 16.9 9.5 34.6 11 52.6 3.9 45.1 4 90.2 1.8 135.3-1.1 22.9-2.2 45.9-8.7 68.2-7.4 25.6-23.1 42.5-49.3 48.3-10.2 2.2-20.8 3-31.2 3.4-54.4 1.9-108.7 3.6-160.2 5.2zm-55.3-113.7c45.6-23.6 90.7-47 136.7-70.9-45.9-24-91-47.5-136.7-71.4v142.3z"/></svg></svg>